<?xml version="1.0" encoding="UTF-8" standalone="no"?>
<!-- Created with Inkscape (http://www.inkscape.org/) -->

<svg
   width="166.76712mm"
   height="161.66292mm"
   viewBox="0 0 166.76712 161.66292"
   version="1.1"
   id="svg1"
   xml:space="preserve"
   sodipodi:docname="logo-mobile.svg"
   inkscape:version="1.4 (e7c3feb1, 2024-10-09)"
   xmlns:inkscape="http://www.inkscape.org/namespaces/inkscape"
   xmlns:sodipodi="http://sodipodi.sourceforge.net/DTD/sodipodi-0.dtd"
   xmlns="http://www.w3.org/2000/svg"
   xmlns:svg="http://www.w3.org/2000/svg"><sodipodi:namedview
     id="namedview1"
     pagecolor="#ffffff"
     bordercolor="#000000"
     borderopacity="0.25"
     inkscape:showpageshadow="2"
     inkscape:pageopacity="0.0"
     inkscape:pagecheckerboard="0"
     inkscape:deskcolor="#d1d1d1"
     inkscape:document-units="mm"
     inkscape:zoom="0.89887065"
     inkscape:cx="268.11422"
     inkscape:cy="358.78355"
     inkscape:window-width="1200"
     inkscape:window-height="1186"
     inkscape:window-x="0"
     inkscape:window-y="31"
     inkscape:window-maximized="0"
     inkscape:current-layer="svg1" /><defs
     id="defs1" /><g
     id="layer1"
     transform="translate(-34.101723,-53.436403)"><path
       style="fill:#000000"
       d="m 117.61475,214.87771 c -2.46548,-0.13717 -2.10257,-0.17708 3.19822,-0.35176 8.53643,-0.2813 14.89538,-1.29159 21.72153,-3.45106 20.46303,-6.47354 36.48882,-20.09358 46.26536,-39.32014 12.34877,-24.2851 10.4803,-54.07998 -4.82151,-76.884645 -7.39796,-11.025369 -17.08561,-19.642487 -28.75413,-25.576659 -3.70592,-1.88469 -8.49037,-3.924109 -8.70423,-3.710256 -0.0522,0.05222 1.05676,0.573801 2.46439,1.159073 4.03271,1.676744 8.62541,4.170958 12.84925,6.978195 14.96078,9.943201 25.81412,24.728056 30.75488,41.895542 3.39669,11.80232 3.82931,25.06717 1.20254,36.8712 -2.43489,10.94175 -7.24962,21.27204 -14.03576,30.11453 -9.30726,12.12756 -23.1807,21.59995 -38.11351,26.02282 -7.126,2.11061 -13.5082,3.01377 -21.24596,3.00656 -7.25802,-0.007 -13.25382,-0.77385 -19.46743,-2.49061 -2.794659,-0.77214 -7.437333,-2.36872 -7.29675,-2.50931 0.05009,-0.0501 1.399478,0.33098 2.998643,0.84682 7.099987,2.29022 13.837937,3.30216 21.957847,3.29773 8.14912,-0.004 14.1392,-0.85543 21.33123,-3.03043 9.02399,-2.72902 17.83195,-7.3972 25.25154,-13.38322 3.33693,-2.69218 8.78426,-8.22182 11.31135,-11.48226 12.6297,-16.29479 17.82793,-36.5055 14.52047,-56.45554 -0.60735,-3.66345 -2.10803,-9.42716 -3.30501,-12.69368 -2.45973,-6.71257 -7.16424,-15.008343 -11.72628,-20.677764 -9.12122,-11.335278 -23.04807,-20.193344 -37.58316,-23.904481 -8.47601,-2.164118 -19.85039,-2.682756 -27.58712,-1.25789 -2.24939,0.414269 -1.46959,0.374299 3.19822,-0.16393 3.39139,-0.391048 10.98344,-0.310163 15.00122,0.159823 16.45957,1.92538 32.1726,10.022758 43.35876,22.344017 9.36708,10.317595 15.42751,23.250135 17.61277,37.584435 0.68819,4.51418 0.69036,15.02391 0.004,19.46743 -4.09953,26.54125 -21.17054,47.5598 -46.17956,56.85821 -4.93466,1.83472 -12.84471,3.61968 -17.28243,3.89991 l -1.94674,0.12293 1.94468,-0.27216 c 22.06277,-3.08772 40.82024,-15.63267 51.72025,-34.59037 4.48929,-7.80795 7.29444,-16.26584 8.53708,-25.74042 0.50494,-3.84993 0.42404,-12.77635 -0.15249,-16.82542 -1.55928,-10.95101 -5.89663,-21.69936 -12.21747,-30.27601 -2.47272,-3.355191 -5.93753,-7.249485 -8.30779,-9.337581 -1.56002,-1.374315 -1.22135,-0.953625 1.45528,1.80769 3.83543,3.956775 5.1323,5.562802 7.84663,9.717181 4.75554,7.27851 8.10935,15.81794 9.66638,24.61239 0.76998,4.349 1.05778,13.46717 0.57248,18.13714 -2.32035,22.32824 -16.20628,42.38841 -36.31359,52.46007 -3.72348,1.86508 -6.27663,2.9171 -10.16476,4.18837 -3.83206,1.25293 -3.73173,1.02313 0.15294,-0.35032 15.10808,-5.34156 28.19137,-16.50271 35.85773,-30.58967 3.60864,-6.63089 6.19329,-14.7698 7.23839,-22.79329 0.48954,-3.75834 0.56171,-11.19767 0.14225,-14.66315 -2.7281,-22.53888 -16.94529,-41.332353 -37.39814,-49.436001 -7.07424,-2.802894 -13.59158,-4.024331 -21.41417,-4.013303 -9.04871,0.01276 -16.49608,1.726573 -24.50001,5.638039 -5.378463,2.628417 -10.97649,6.630842 -14.434723,10.320404 l -1.390404,1.483412 1.529457,-1.419452 c 8.449238,-7.841526 18.50865,-12.703951 29.89628,-14.450992 4.16786,-0.639414 12.03666,-0.639862 16.12068,-9.16e-4 10.49468,1.641896 20.09948,6.052825 28.43574,13.058893 11.11674,9.342866 18.40318,23.193486 20.12018,38.245926 0.42901,3.76103 0.19257,12.93274 -0.42006,16.29428 -0.59454,3.26234 -1.88218,8.11794 -2.80249,10.56804 -1.00101,2.66495 -2.97365,7.12346 -3.09711,7 -0.0555,-0.0555 0.19767,-0.77717 0.56259,-1.60371 3.61369,-8.18492 5.42745,-19.05226 4.65686,-27.90214 -0.64098,-7.36142 -2.36124,-13.69782 -5.46973,-20.14709 -3.01364,-6.2525 -6.40301,-11.01412 -11.14612,-15.65885 -4.44445,-4.35225 -8.57734,-7.268364 -14.15021,-9.98421 -13.51979,-6.588647 -28.4351,-6.901212 -42.54404,-0.891551 -13.389916,5.703394 -23.461129,18.084221 -26.611723,32.714551 -0.816271,3.79049 -0.887372,12.08556 -0.136228,15.89314 1.382647,7.0087 3.487319,11.7807 8.866635,20.10361 1.214758,1.87949 2.530324,4.11987 2.92348,4.97864 1.293315,2.82497 0.781417,5.92313 -1.168775,7.07377 -0.92152,0.54371 -0.968252,0.63319 -0.616587,1.18061 3.341996,5.20239 4.473837,7.89814 4.306416,10.25679 -0.145876,2.05511 -1.035863,3.07789 -3.100689,3.56334 -4.05376,0.95305 -4.407189,1.40835 -4.630298,5.96501 -0.179312,3.66216 -0.542999,4.68817 -1.958111,5.5241 -2.007691,1.18597 -5.43562,1.08471 -8.452964,-0.2497 -1.409889,-0.62352 -1.709081,-0.66548 -2.744361,-0.38485 -3.074803,0.83345 -7.921831,-0.60509 -12.564308,-3.72894 C 47.555605,185.79486 39.116377,171.84727 35.71479,154.80379 29.945583,125.89746 39.887919,95.614158 61.755446,75.486705 72.436329,65.655737 86.01671,58.620914 100.51123,55.410681 c 33.20178,-7.353502 67.37856,6.219418 86.37999,34.304839 10.29263,15.2132 15.16156,33.51291 13.73341,51.61659 -2.94321,37.30914 -30.79585,67.34868 -67.53972,72.84271 -2.43949,0.36476 -11.67337,1.03998 -12.41099,0.90754 -0.15296,-0.0275 -1.52958,-0.11956 -3.05917,-0.20465 z M 163.64132,89.053063 c 0,-0.05775 -0.21901,-0.276759 -0.48669,-0.486686 -0.44109,-0.345928 -0.45093,-0.336091 -0.105,0.105001 0.36331,0.463255 0.59169,0.610576 0.59169,0.381685 z m -56.53087,-20.36477 c -0.0924,-0.09241 -0.33228,-0.102293 -0.53303,-0.02196 -0.22186,0.08878 -0.15596,0.154678 0.16802,0.168023 0.29317,0.01207 0.45743,-0.05366 0.36501,-0.146067 z m 1.25728,-0.294268 c -0.1912,-0.07715 -0.50407,-0.07715 -0.69527,0 -0.1912,0.07715 -0.0348,0.140273 0.34763,0.140273 0.3824,0 0.53883,-0.06312 0.34764,-0.140273 z m 4.03253,145.993635 c 0.34416,-0.0663 0.90733,-0.0663 1.25148,0 0.34416,0.0663 0.0626,0.12053 -0.62574,0.12053 -0.68831,0 -0.96989,-0.0542 -0.62574,-0.12053 z m 10.01507,-6.11876 c 0.34594,-0.0665 0.84653,-0.064 1.11242,0.006 0.2659,0.0696 -0.0172,0.12403 -0.62898,0.12094 -0.61183,-0.003 -0.82938,-0.06 -0.48344,-0.12656 z m -29.96918,-2.02815 c -0.229438,-0.14828 -0.292012,-0.26959 -0.139054,-0.26959 0.152959,0 0.465828,0.12131 0.695266,0.26959 0.229437,0.14827 0.292011,0.26959 0.139053,0.26959 -0.152959,0 -0.465828,-0.12132 -0.695265,-0.26959 z"
       id="path1" /></g></svg>
