<?xml version="1.0" encoding="UTF-8" standalone="no"?>
<!-- Created with Inkscape (http://www.inkscape.org/) -->

<svg
   width="214.99727mm"
   height="80.756386mm"
   viewBox="0 0 214.99727 80.756386"
   version="1.1"
   id="svg1"
   xml:space="preserve"
   sodipodi:docname="logo.svg"
   inkscape:version="1.4 (e7c3feb1, 2024-10-09)"
   xmlns:inkscape="http://www.inkscape.org/namespaces/inkscape"
   xmlns:sodipodi="http://sodipodi.sourceforge.net/DTD/sodipodi-0.dtd"
   xmlns="http://www.w3.org/2000/svg"
   xmlns:svg="http://www.w3.org/2000/svg"><sodipodi:namedview
     id="namedview1"
     pagecolor="#ffffff"
     bordercolor="#000000"
     borderopacity="0.25"
     inkscape:showpageshadow="2"
     inkscape:pageopacity="0.0"
     inkscape:pagecheckerboard="0"
     inkscape:deskcolor="#d1d1d1"
     inkscape:document-units="mm"
     inkscape:clip-to-page="false"
     inkscape:zoom="0.89887065"
     inkscape:cx="408.29011"
     inkscape:cy="167.43232"
     inkscape:window-width="1200"
     inkscape:window-height="1186"
     inkscape:window-x="0"
     inkscape:window-y="31"
     inkscape:window-maximized="0"
     inkscape:current-layer="svg1" /><defs
     id="defs1" /><g
     id="layer1"
     transform="translate(3.0234378,-104.31943)"><path
       style="fill:#000000"
       d="m 33.665323,184.81123 c -0.920255,-0.1937 -0.918602,-0.19502 0.264584,-0.21115 0.654843,-0.009 1.42875,0.0861 1.719791,0.21115 0.447237,0.19219 0.406273,0.22488 -0.264583,0.21116 -0.436563,-0.009 -1.210469,-0.10395 -1.719792,-0.21116 z m 3.464559,0.15142 c 0.190047,-0.19005 4.203151,-0.24482 4.388081,-0.0599 0.09518,0.0952 -0.878664,0.17306 -2.164098,0.17306 -1.285434,0 -2.286227,-0.0509 -2.223983,-0.11317 z m -7.301017,-0.93508 c -3.262806,-0.68487 -5.515413,-1.49717 -9.260416,-3.33934 -4.326862,-2.12838 -7.763053,-4.56338 -10.9815629,-7.78189 -8.3356422,-8.33565 -12.5055787,-19.9837 -11.4065905,-31.86251 0.3162047,-3.41781 1.4454714,-8.59656 2.25469452,-10.33989 1.56137478,-3.36371 2.78423038,-5.73569 3.52281218,-6.83321 0.477366,-0.70937 0.8679382,-1.34368 0.8679382,-1.40958 0,-0.53362 5.2837985,-6.36745 7.4083335,-8.17953 3.404618,-2.9039 9.353256,-6.2032 12.837502,-7.12008 4.685776,-1.23306 12.515852,-1.84292 17.324997,-1.34938 l 1.455208,0.14934 -1.322916,-0.42333 c -1.462971,-0.46814 -8.40213,-0.65337 -11.509375,-0.30723 -2.290915,0.25521 -1.25599,-0.17644 1.379606,-0.5754 4.142192,-0.62704 9.510932,-0.36392 13.917596,0.68208 4.928047,1.16976 11.588927,4.19067 14.071547,6.38186 0.800365,0.70641 1.871927,1.56919 2.38125,1.91729 1.442572,0.98594 5.960625,5.68646 6.443213,6.70344 0.238404,0.5024 0.620162,0.9851 0.848352,1.07266 0.22819,0.0876 0.348005,0.26743 0.266256,0.39971 -0.08175,0.13227 0.280761,0.87725 0.805579,1.65551 2.068325,3.06715 4.058474,7.75283 4.98998,11.74861 0.205448,0.88129 0.441079,2.96488 0.523623,4.63021 0.08255,1.66533 0.211058,3.68271 0.285584,4.48307 0.239326,2.57021 -0.648703,9.46623 -1.471389,11.42614 -0.286201,0.68182 -0.520365,1.43268 -0.520365,1.66858 0,0.23591 -0.590294,1.78471 -1.311765,3.44178 -2.256221,5.1821 -5.507191,9.90333 -9.018288,13.09684 -2.733437,2.48619 -2.702867,2.45976 -3.213765,2.77812 -0.233527,0.14552 -0.823812,0.54271 -1.311742,0.88265 -0.67359,0.46928 -0.633676,0.40559 0.165807,-0.26459 2.097934,-1.7586 2.64809,-2.29687 2.499483,-2.44548 -0.08325,-0.0832 -0.380824,0.0575 -0.661276,0.31282 -1.235985,1.12514 -2.968028,2.44064 -3.213459,2.44064 -0.147289,0 -0.578826,0.24466 -0.958971,0.54368 -1.300403,1.0229 -5.036734,2.94779 -5.846923,3.01223 -0.44512,0.0354 -1.880871,0.43821 -3.190558,0.89513 -3.571028,1.24583 -6.983786,1.87912 -10.980209,2.03754 -1.964531,0.0779 -4.107656,0.1808 -4.762499,0.2287 -0.654844,0.0479 -2.143125,-0.11283 -3.307292,-0.35719 z M 47.820531,181.188 c 4.333675,-1.33669 9.191795,-4.10848 12.832292,-7.32145 1.947138,-1.71847 4.943453,-5.16768 6.654062,-7.65984 0.880618,-1.28296 1.547332,-2.38644 1.481586,-2.45219 -0.06575,-0.0658 -0.464648,0.38763 -0.886448,1.0075 -4.820376,7.08398 -9.783788,11.39601 -16.977401,14.74935 -1.555807,0.72525 -3.136161,1.29126 -6.279091,2.2489 l -1.322916,0.40308 1.190625,-0.16124 c 0.654843,-0.0887 2.143125,-0.45504 3.307291,-0.81411 z m -3.891449,-3.13742 c 3.467078,-0.69815 8.403865,-2.87605 11.084829,-4.89017 2.818067,-2.11711 8.605131,-8.19293 7.803563,-8.19293 -0.13844,0 -0.46383,0.32742 -0.723089,0.72761 -0.878842,1.35654 -4.210056,4.6331 -6.292372,6.18912 -2.258481,1.68767 -5.411716,3.54644 -5.635898,3.32226 -0.07733,-0.0773 0.375307,-0.38578 1.005864,-0.68543 3.464344,-1.64634 10.467786,-8.13545 11.979252,-11.0995 0.248065,-0.48646 0.521493,-0.81402 0.607618,-0.72789 0.203501,0.2035 1.696862,-2.50911 2.316864,-4.20846 0.265463,-0.7276 0.657126,-1.46602 0.870362,-1.64093 0.213236,-0.17491 0.324912,-0.48165 0.248168,-0.68164 -0.07674,-0.19999 0.218266,-1.54516 0.655575,-2.98927 0.437309,-1.44411 0.89823,-3.39956 1.024267,-4.34545 0.336956,-2.52878 0.244324,-8.16357 -0.166416,-10.12304 -0.19657,-0.93775 -0.412197,-1.9905 -0.47917,-2.33942 -0.419187,-2.18393 -0.816861,-3.4642 -1.504587,-4.84386 -0.428683,-0.85999 -0.779423,-1.70346 -0.779423,-1.87437 0,-0.17091 -0.446484,-0.95587 -0.992187,-1.74434 -0.545703,-0.78848 -1.170782,-1.78011 -1.389063,-2.20364 -0.218281,-0.42352 -1.706562,-2.09673 -3.307291,-3.71825 -4.636304,-4.69651 -9.763082,-7.69673 -16.074543,-9.40694 -2.286475,-0.61956 -6.745188,-0.90798 -7.272411,-0.47042 -0.222644,0.18478 -0.333254,0.18689 -0.333254,0.006 0,-0.27461 -3.510994,-0.22124 -5.22864,0.0795 -3.60457,0.63108 -9.691724,3.36748 -12.906612,5.802 -2.117069,1.60318 -5.254399,4.5428 -5.851354,5.48261 -0.122523,0.19289 -0.460894,0.48267 -0.751935,0.64394 -0.291042,0.16128 -0.542918,0.55328 -0.559725,0.87111 -0.01681,0.31784 -0.26404,0.84073 -0.549407,1.16198 -0.656382,0.73893 -2.1981599,3.12066 -2.1981599,3.39571 0,0.11404 -0.3509751,0.95683 -0.7799447,1.87287 -0.9070175,1.93688 -1.6598693,4.45183 -2.2805818,7.61843 -0.7010245,3.57632 -0.4243908,9.00552 0.667335,13.09709 1.1316083,4.24104 1.9973918,6.38664 3.7901056,9.39271 1.6119248,2.70292 2.2521078,3.56514 4.2619418,5.74017 1.269637,1.37399 5.978022,5.10775 6.441028,5.10775 0.129664,0 0.468052,0.21642 0.751974,0.48093 0.768376,0.71585 4.958691,2.56099 7.521058,3.31177 3.664067,1.07359 5.933622,1.36667 10.583333,1.36667 3.793916,0 4.469573,-0.0644 5.159375,-0.49178 0.791537,-0.49041 0.792144,-0.49034 0.217816,0.0267 -0.360332,0.3244 -1.326043,0.63951 -2.579687,0.84174 -1.102065,0.17778 -2.003754,0.37412 -2.003754,0.4363 0,0.2354 1.684429,0.098 3.649176,-0.29759 z M 27.84449,165.35715 c 0,-0.0767 1.022377,-4.13109 2.271949,-9.00969 1.249572,-4.8786 2.207873,-9.03717 2.129558,-9.24125 -0.07832,-0.20409 -0.645235,-0.6276 -1.259821,-0.94114 -2.80105,-1.42899 -5.254219,-5.01628 -5.86373,-8.57457 -1.371086,-8.00435 5.779081,-15.21678 13.847347,-13.96793 5.244908,0.81184 9.386105,4.87431 10.325146,10.12886 0.857469,4.7981 -1.430154,9.59781 -5.88505,12.34753 -1.29132,0.79704 -1.551302,1.0739 -1.428245,1.52095 0.595658,2.16392 4.383679,17.36567 4.383679,17.59219 0,0.19759 -2.830096,0.28455 -9.260417,0.28455 -5.093229,0 -9.260416,-0.0628 -9.260416,-0.1395 z m 36.003358,8.96489 0.641433,-0.69962 -0.727604,0.46546 c -0.400183,0.25601 -0.727604,0.57083 -0.727604,0.69962 0,0.35975 0.12024,0.29098 0.813775,-0.46546 z m 2.959078,-3.40143 c 0.648967,-0.94324 0.370642,-0.6896 -1.016183,0.92604 -0.678796,0.79079 -0.771471,0.96849 -0.27597,0.52917 0.410319,-0.36381 0.991788,-1.01865 1.292153,-1.45521 z m 3.503188,-9.65729 c 0.225755,-0.43657 0.350933,-0.79375 0.278172,-0.79375 -0.07276,0 -0.317,0.35718 -0.542755,0.79375 -0.225755,0.43656 -0.350933,0.79375 -0.278173,0.79375 0.07276,0 0.317001,-0.35719 0.542756,-0.79375 z M 43.456116,184.4703 c 0.175315,-0.19246 3.752523,-1.02061 3.875841,-0.89729 0.05231,0.0523 -0.352141,0.2256 -0.898782,0.38509 -1.307493,0.38148 -3.146147,0.69781 -2.977059,0.5122 z m 4.496707,-1.24657 c 0,-0.14552 0.119062,-0.26458 0.264583,-0.26458 0.145521,0 0.264584,0.11906 0.264584,0.26458 0,0.14552 -0.119063,0.26459 -0.264584,0.26459 -0.145521,0 -0.264583,-0.11907 -0.264583,-0.26459 z m 1.435893,-0.40255 c 0.280419,-0.21215 0.574627,-0.32095 0.653796,-0.24179 0.166077,0.16608 -0.505909,0.63836 -0.899064,0.63188 -0.145521,-0.002 -0.03515,-0.17794 0.245268,-0.39009 z m 1.20994,-0.92036 c 0,-0.14552 0.126089,-0.26459 0.280198,-0.26459 0.154109,0 0.206614,0.11907 0.116677,0.26459 -0.08994,0.14552 -0.216026,0.26458 -0.280198,0.26458 -0.06417,0 -0.116677,-0.11906 -0.116677,-0.26458 z m 7.14375,-2.76882 c 0,-0.0676 0.267891,-0.26573 0.595313,-0.44019 0.539808,-0.28764 0.561456,-0.27617 0.232186,0.12298 -0.338091,0.40985 -0.827499,0.59745 -0.827499,0.31721 z m 38.629166,-14.42852 c -1.091406,-0.29041 -2.847578,-0.95163 -3.902604,-1.46938 l -1.918229,-0.94136 v -3.55567 -3.55568 l 1.25677,0.96493 c 2.537436,1.9482 5.764264,3.00033 9.201841,3.00033 4.93839,0 7.57078,-1.82342 7.60321,-5.26666 0.0279,-2.95789 -1.02052,-3.9096 -7.11914,-6.46265 -7.161122,-2.99786 -9.710959,-5.53576 -10.391771,-10.34316 -0.718551,-5.07389 1.994973,-10.07349 6.67266,-12.29421 4.090791,-1.94208 10.117191,-1.77901 14.670701,0.39698 l 1.91823,0.91667 v 3.83992 3.83993 l -0.85936,-0.80314 c -1.11141,-1.0387 -3.63686,-2.26041 -5.52449,-2.67251 -2.13575,-0.46627 -5.64112,-0.2257 -7.01047,0.48113 -2.748912,1.41891 -3.715297,4.41755 -2.21589,6.87577 0.697782,1.14399 2.35333,2.16195 5.92471,3.64296 1.61624,0.67024 3.68548,1.57596 4.59831,2.01272 2.21408,1.05936 4.64846,3.35013 5.70236,5.36595 0.79742,1.52525 0.83965,1.7544 0.83251,4.51717 -0.006,2.40442 -0.11306,3.17502 -0.61453,4.43233 -1.26278,3.16611 -3.80618,5.43855 -7.5741,6.7672 -2.64119,0.93134 -8.327549,1.08824 -11.250718,0.31043 z m 96.918988,0.0222 c -3.44286,-0.98501 -6.46409,-3.53956 -8.13115,-6.87514 -1.24017,-2.48144 -1.60534,-4.22075 -1.58878,-7.56739 0.0121,-2.453 0.12694,-3.23593 0.73042,-4.98153 2.12518,-6.14717 7.11707,-9.68607 13.68108,-9.69894 6.68487,-0.0131 12.23579,4.48875 13.62656,11.05129 0.80854,3.81522 0.24414,8.47403 -1.39436,11.50963 -1.67201,3.09768 -4.8302,5.64018 -8.25589,6.6464 -1.97467,0.58001 -6.49974,0.536 -8.66788,-0.0843 z m 7.62311,-5.73335 c 1.47007,-0.73771 2.46623,-1.86211 3.37938,-3.81439 0.60515,-1.29381 0.67928,-1.778 0.6684,-4.36563 -0.01,-2.29206 -0.12721,-3.1989 -0.55336,-4.26824 -1.09115,-2.73805 -2.91681,-4.38439 -5.41926,-4.88695 -4.9862,-1.00137 -9.20454,4.04461 -8.57904,10.26223 0.20818,2.06932 0.71703,3.51428 1.7344,4.92511 2.06903,2.86921 5.60583,3.73546 8.76948,2.14787 z m -80.46502,-14.78692 v -20.51289 h 3.57188 3.57187 v 7.82556 7.82556 l 0.81598,-0.81597 c 2.04285,-2.04285 5.07118,-3.08023 8.30281,-2.8442 2.64829,0.19343 4.13492,0.69794 5.83017,1.97857 1.53095,1.15651 2.88845,3.55351 3.30976,5.8442 0.14416,0.78385 0.26212,5.87722 0.26212,11.31862 v 9.89344 l -3.45436,-0.0738 -3.45437,-0.0738 0.0198,-8.33438 c 0.0207,-8.74126 -0.16714,-10.86083 -1.09703,-12.37568 -1.3695,-2.231 -5.29478,-2.43815 -8.85467,-0.46728 l -1.5479,0.85698 -0.1323,10.16018 -0.13229,10.16018 -3.50573,0.0738 -3.50573,0.0738 z m 31.48542,6.35 v -14.16289 h 3.5782 3.5782 l -0.0725,14.08907 -0.0725,14.08906 -3.50573,0.0738 -3.50573,0.0738 z m 12.96458,-0.008 V 136.3922 h 3.43959 3.43958 l 0.003,2.57969 0.003,2.57969 0.62858,-1.34995 c 1.46132,-3.13836 4.7496,-4.90687 8.23526,-4.42911 l 1.18516,0.16244 v 3.43193 c 0,3.16081 -0.0366,3.41768 -0.46302,3.25159 -3.52108,-1.37137 -6.86962,-0.18531 -8.674,3.07236 l -0.78486,1.41699 -0.0794,8.79739 -0.0794,8.7974 h -3.42634 -3.42635 z m -166.4020212,4.74045 c 0.012696,-0.30822 0.07539,-0.37092 0.1598525,-0.15985 0.07643,0.191 0.067031,0.4192 -0.020888,0.50712 -0.087919,0.0879 -0.1504527,-0.0684 -0.1389645,-0.34727 z m -0.2969943,-0.92604 c -0.00634,-0.20615 -0.1094131,-0.88084 -0.2290566,-1.4993 -0.1196436,-0.61847 -0.1297972,-1.12448 -0.022564,-1.12448 0.2357899,0 0.6148943,2.64686 0.408645,2.85311 -0.080026,0.08 -0.1506872,-0.0232 -0.1570244,-0.22933 z m -0.761339,-4.89479 c 0.012696,-0.30823 0.07539,-0.37092 0.1598525,-0.15985 0.07643,0.19099 0.067031,0.4192 -0.020888,0.50712 -0.087919,0.0879 -0.1504527,-0.0684 -0.1389645,-0.34727 z m -0.4177631,-5.93108 c 0.089937,-0.14552 0.216026,-0.26458 0.2801982,-0.26458 0.064172,0 0.1166768,0.11906 0.1166768,0.26458 0,0.14552 -0.1260892,0.26459 -0.2801983,0.26459 -0.154109,0 -0.2066135,-0.11907 -0.1166767,-0.26459 z m 0,-0.79375 c 0.089937,-0.14552 0.216026,-0.26458 0.2801982,-0.26458 0.064172,0 0.1166768,0.11906 0.1166768,0.26458 0,0.14552 -0.1260892,0.26459 -0.2801983,0.26459 -0.154109,0 -0.2066135,-0.11907 -0.1166767,-0.26459 z m 0.174068,-1.05833 c 0,-0.3638 0.060053,-0.51263 0.1334521,-0.33073 0.073399,0.1819 0.073399,0.47956 0,0.66146 -0.073399,0.1819 -0.1334521,0.0331 -0.1334521,-0.33073 z m 0.025373,-1.90593 c -0.013167,-0.81575 0.00419,-0.83311 0.2682534,-0.26825 0.1907963,0.40814 0.1953608,0.69092 0.014078,0.8722 -0.1812822,0.18128 -0.2728178,-0.0145 -0.2823314,-0.60395 z m 0.249014,-1.66595 c 0.00539,-0.43656 0.06469,-0.58312 0.1317736,-0.32569 0.067083,0.25743 0.062672,0.61462 -0.0098,0.79375 -0.072475,0.17913 -0.1273619,-0.0315 -0.1219697,-0.46806 z m 0.2130031,-1.12515 c 0,-1.03096 1.61487557,-6.68005 1.90958887,-6.68005 0.13106917,0 0.17605151,-0.10074 0.0999608,-0.22385 -0.30372683,-0.49144 4.15750653,-8.50475 6.13566903,-11.02095 0.9108124,-1.15854 5.6640998,-5.95312 5.9018488,-5.95312 0.111449,0 0.359967,-0.15392 0.552263,-0.34204 0.541991,-0.53024 4.752815,-3.21126 5.641294,-3.5918 1.082823,-0.46378 0.676441,-0.13444 -2.16955,1.75822 -1.338773,0.89032 -3.124711,2.18034 -3.96875,2.86671 -2.0111054,1.63543 -5.8362016,5.56949 -6.0402127,6.21227 -0.088149,0.27774 -0.2442351,0.50497 -0.3468577,0.50497 -0.1026225,0 -0.4188879,0.44649 -0.7028121,0.99219 -0.2839241,0.5457 -0.7745737,1.34938 -1.0903324,1.78594 -1.0092005,1.3953 -3.44631169,6.54746 -4.06754085,8.59896 -0.33049705,1.0914 -0.69373025,2.10343 -0.80718475,2.24895 -0.1710394,0.21939 -0.5953486,1.91885 -0.6385735,2.55764 -0.021138,0.31239 -0.4088105,0.58356 -0.4088105,0.28596 z M 154.36012,132.1637 c -1.96391,-0.4703 -3.24545,-2.7066 -2.7038,-4.71814 0.45785,-1.70032 1.88491,-2.69474 3.86715,-2.69474 1.53797,0 2.81234,0.73685 3.39389,1.96238 1.45608,3.06847 -1.20648,6.25293 -4.55724,5.4505 z M 18.938316,108.68021 c 0.20012,-0.3238 4.097018,-1.79133 4.277492,-1.61085 0.06662,0.0666 -0.680373,0.44836 -1.659989,0.84831 -2.382929,0.97288 -2.827549,1.10241 -2.617503,0.76254 z m 4.82795,-1.91742 c 0.143519,-0.14352 1.185313,-0.49736 2.315098,-0.78631 1.129786,-0.28895 2.159041,-0.59018 2.287233,-0.66941 0.128193,-0.0792 0.304146,-0.0291 0.391005,0.11148 0.08686,0.14054 -0.291866,0.33506 -0.841613,0.43226 -0.549748,0.0972 -1.680394,0.40087 -2.512548,0.67483 -1.717697,0.56548 -2.009758,0.60773 -1.639175,0.23715 z"
       id="path1" /></g></svg>
